<?xml version="1.0" standalone="no"?>
<!DOCTYPE svg PUBLIC "-//W3C//DTD SVG 20010904//EN"
 "http://www.w3.org/TR/2001/REC-SVG-20010904/DTD/svg10.dtd">
<svg version="1.0" xmlns="http://www.w3.org/2000/svg"
 width="512.000000pt" height="512.000000pt" viewBox="0 0 512.000000 512.000000"
 preserveAspectRatio="xMidYMid meet">
<metadata>
Created by potrace 1.11, written by Peter Selinger 2001-2013
</metadata>
<g transform="translate(0.000000,512.000000) scale(0.100000,-0.100000)"
fill="#000000" stroke="none">
<path d="M815 4572 c-21 -8 -38 -25 -46 -44 -17 -40 -17 -3888 -1 -3930 24
-58 34 -60 349 -61 159 0 311 3 338 7 159 24 307 167 343 332 5 22 9 275 8
562 -1 456 1 522 14 525 24 5 111 -18 156 -41 41 -21 120 -92 159 -144 20 -25
603 -698 615 -708 3 -3 58 -66 122 -141 138 -160 185 -204 275 -263 63 -40
177 -92 227 -102 107 -23 170 -26 538 -27 382 0 409 1 428 18 42 38 24 78 -95
209 -6 6 -57 65 -114 131 -57 66 -127 147 -156 180 -29 33 -104 119 -165 190
-62 72 -127 146 -144 165 -17 19 -58 67 -91 105 -33 39 -62 72 -66 75 -3 3
-65 75 -139 160 -73 85 -149 170 -167 189 -18 19 -32 39 -30 44 2 6 34 20 72
33 301 101 580 340 728 623 41 78 82 172 93 211 47 170 55 230 57 385 1 168
-4 215 -33 330 -98 380 -355 695 -704 864 -144 70 -284 110 -438 127 -35 4
-521 7 -1081 8 -823 1 -1025 -2 -1052 -12z m2124 -826 c90 -23 157 -62 226
-131 234 -235 167 -633 -129 -778 -98 -48 -117 -50 -688 -51 -475 -1 -538 0
-539 14 -6 145 2 954 9 959 6 3 246 5 534 5 450 -1 532 -4 587 -18z"/>
</g>
</svg>
